<?xml version="1.0" encoding="utf-8"?>
<!-- Generator: Adobe Illustrator 25.0.0, SVG Export Plug-In . SVG Version: 6.00 Build 0)  -->
<svg version="1.1" id="Capa_1" xmlns="http://www.w3.org/2000/svg" xmlns:xlink="http://www.w3.org/1999/xlink" x="0px" y="0px"
	 viewBox="0 0 2573 523" style="enable-background:new 0 0 2573 523;" xml:space="preserve">
<style type="text/css">
	.st0{fill:#009BA4;}
</style>
<g transform="translate(0.000000,523.000000) scale(0.100000,-0.100000)">
	<path class="st0" d="M1720,5122c-69-53-217-167-330-253s-308-235-435-333c-288-221-494-378-849-649c-37-28-75-58-82-65
		c-12-11-14-306-14-1908C10,872,12,20,15,20c6,0,305,239,595,475c113,92,249,202,302,244l97,76v1045c1,639,5,1070,11,1110
		c53,348,211,533,505,595c131,27,267,14,412-40c83-32,98-41,321-200c101-71,212-150,247-175c115-81,287-204,478-341
		c220-157,273-194,439-311c67-48,134-96,148-107s31-21,38-21c9,0,12,190,12,918c0,504-4,922-8,928c-7,10-95,63-212,127
		c-30,16-67,38-82,49c-14,10-29,18-32,18s-43,22-88,49c-46,26-103,59-128,73c-62,35-106,60-168,97c-29,17-55,31-58,31s-18,8-32,18
		c-15,11-58,36-97,57c-38,21-82,46-97,56c-14,11-29,19-32,19s-29,14-58,31c-65,39-110,65-168,97c-25,13-147,82-271,153
		s-229,129-235,129C1849,5220,1789,5176,1720,5122z"/>
	<path class="st0" d="M5174,5057c-110-89-259-209-330-267s-205-166-297-240l-167-135V3360c0-1129-1-1134-51-1281
		c-55-162-158-287-289-350c-115-55-158-64-315-64c-237,1-312,35-725,339c-25,18-101,73-170,121c-69,49-147,105-175,125
		c-152,112-857,611-865,613c-7,1-14-1342-10-1842c0-5,26-24,57-42c67-37,109-61,158-89c19-11,51-29,70-40c87-50,103-59,153-89
		c29-17,54-31,56-31s55-30,117-66c63-37,134-78,159-92s108-61,185-105s165-93,195-110c30-16,60-33,65-37c6-4,28-18,50-30
		s137-78,256-146c118-68,223-124,233-124c17,0,111,71,836,627c124,95,340,261,480,368s317,243,393,301l137,105v1900
		c0,1044-1,1899-2,1899C5376,5219,5285,5146,5174,5057z"/>
	<path class="st0" d="M6815,4150c-286-31-488-125-689-319c-178-173-266-343-297-571c-7-52-9-177-6-339c4-212,8-269,25-331
		c61-232,179-404,381-556c146-109,296-176,475-211c142-28,438-19,546,17c14,4,51,16,82,25c76,22,213,93,296,152
		c85,61,218,193,269,269c57,84,110,201,134,297c18,68,22,122,26,325c6,294-9,444-57,567c-81,210-293,440-505,548
		c-101,51-152,71-255,98C7127,4150,6937,4163,6815,4150z M7093,3615c174-45,313-172,374-340c15-43,18-83,18-295c0-264-5-299-61-396
		c-57-98-200-205-329-245c-57-17-247-15-318,4c-165,45-306,175-364,333c-16,42-18,84-18,304c0,217,3,262,18,303
		c64,178,254,325,452,350C6919,3640,7034,3631,7093,3615z"/>
	<path class="st0" d="M8468,4140c-167-64-220-200-145-375c45-104,146-331,187-420c18-38,78-173,135-300c103-231,138-308,180-400
		c35-78,66-146,85-190c22-50,55-125,86-192c13-29,35-77,48-105c13-29,34-75,46-103c44-99,52-114,88-155c51-61,125-91,219-92
		c85,0,119,11,186,61c57,42,68,65,270,516c47,105,99,222,117,260c18,39,49,108,70,155c20,47,88,198,150,335c62,138,138,309,170,380
		c32,72,74,165,94,209c66,143,70,221,14,307c-90,136-296,168-431,65c-41-31-93-119-151-256c-24-57-60-137-98-220
		c-17-36-56-123-88-195c-32-71-70-157-85-190s-34-76-42-95c-9-19-30-66-48-105c-18-38-52-114-75-167c-24-54-47-98-51-98
		c-8,0-34,52-94,190c-18,41-47,107-65,145c-18,39-49,108-70,155s-52,117-70,155c-18,39-47,104-65,145s-52,116-74,165
		c-23,50-46,99-51,110c-80,178-100,213-140,248C8685,4155,8567,4178,8468,4140z"/>
	<path class="st0" d="M11705,4145c-169-22-240-43-372-106c-263-126-489-382-559-637c-30-108-36-187-31-472c3-256,6-293,26-360
		c24-83,30-98,74-185c113-225,362-433,619-519c137-45,221-58,388-58c208-1,345,27,512,104l68,31l55-57c30-31,63-56,73-56s23-5,29-11
		c5-5,48-11,94-11c67-1,93,3,129,21c67,31,112,72,140,127l25,49l3,555c2,368,0,592-8,665c-12,119-47,250-87,330
		c-87,170-273,361-446,455C12219,4129,11952,4178,11705,4145z M12033,3609c162-52,281-163,348-324c36-87,38-498,3-605
		c-48-148-192-284-349-332c-89-26-263-29-343-5c-123,37-245,125-306,221c-66,104-75,155-76,416c0,239,9,295,60,384
		c57,101,183,205,288,240C11774,3643,11922,3645,12033,3609z"/>
	<path class="st0" d="M14445,4149c-79-12-163-29-200-41c-105-35-257-115-346-182c-180-137-297-291-359-476c-48-143-50-173-50-825
		c0-576,1-616,19-657c23-54,72-102,135-135c68-35,189-36,259-3c58,27,129,104,145,158c9,28,12,202,12,628c0,690-2,675,102,811
		c72,94,177,161,305,194c317,81,641-121,682-424c7-48,11-297,11-637c0-623-3-598,70-669c62-60,121-84,210-84c117-1,213,54,263,147
		c22,41,22,46,25,621c2,319-1,623-7,676c-21,210-119,409-280,569c-225,223-518,342-836,339C14550,4158,14478,4154,14445,4149z"/>
	<path class="st0" d="M16975,4153c-11-2-56-11-100-19c-301-57-574-261-708-529c-89-177-113-344-104-710c5-206,9-240,32-324
		c37-137,90-238,186-356c65-80,94-108,199-186c137-104,282-168,460-204c111-23,352-24,468-1c247,48,472,170,634,344
		c74,81,101,140,96,212c-11,149-124,245-288,245c-98-1-132-17-235-115c-143-134-252-181-425-181c-122,0-194,16-282,63
		c-120,64-231,194-253,296l-7,32h644c667,0,677,1,754,42c45,25,109,100,122,146c7,22,12,101,12,183c-1,324-80,543-269,741
		c-85,89-273,228-310,228c-9,0-21,4-26,9c-19,18-161,60-257,75C17229,4159,17025,4164,16975,4153z M17252,3624c91-24,150-57,214-121
		c63-62,116-163,118-222l1-36l-469-3l-469-2l7,42c18,113,122,250,229,302C16996,3640,17132,3654,17252,3624z"/>
	<path class="st0" d="M18632,4140c-122-41-194-132-195-246c0-77,19-113,134-249c84-100,242-289,471-562l87-104l-156-187
		c-87-103-191-227-232-277c-42-49-115-136-162-192c-121-141-141-178-141-257c0-51,5-74,28-117c29-52,103-118,134-119c9,0,21-5,27-11
		s46-11,89-11c109-1,171,28,251,120c61,70,250,294,293,348c80,101,222,264,229,264c4,0,75-79,157-177c82-97,178-211,214-253
		s98-116,138-164c93-111,145-138,264-138c68,0,84,4,140,34c151,80,189,239,89,369c-57,73-401,488-554,667c-49,57-77,98-73,107
		c3,8,72,94,153,191c539,644,518,616,530,699c5,43,0,65-32,140c-42,94-195,161-308,134c-121-28-123-30-357-309
		c-305-364-353-420-360-420s-36,31-80,86c-13,16-151,181-209,249c-9,11-71,85-137,165c-67,80-130,152-140,161c-34,30-89,56-143,68
		C18714,4163,18696,4162,18632,4140z"/>
	<path class="st0" d="M21740,4144c-116-14-148-20-225-46c-182-60-308-139-450-282c-125-126-206-259-257-421c-19-64-22-98-26-370
		c-3-200,0-323,8-370c32-198,129-375,287-526c122-117,209-175,363-242c48-21,162-53,240-68c85-15,341-15,427,1s238,64,300,96
		c27,13,52,24,56,24s32-25,62-55c29-30,62-55,72-55c11,0,24-5,30-11s47-11,95-11c97-1,157,22,215,81c76,77,73,43,73,736
		c0,500-3,635-14,696c-38,197-115,339-270,495c-130,131-278,223-451,282c-79,26-92,29-231,47C21917,4162,21886,4162,21740,4144z
		 M22002,3626c128-23,226-78,314-176c59-65,79-98,103-166c19-55,21-81,21-306c0-148-4-258-11-279c-25-80-68-147-134-214
		c-113-114-227-158-410-157c-92,0-122,4-184,26c-123,42-221,120-285,226c-59,97-61,110-61,400c0,239,2,270,19,315
		c41,106,94,172,189,237c78,53,136,78,221,93C21876,3642,21909,3642,22002,3626z"/>
	<path class="st0" d="M23529,2594c-64-19-141-90-169-155c-29-69-30-166-2-231c42-95,144-166,244-169c73-2,110-22,106-57
		c-5-43-37-52-179-51c-73,0-135-4-147-10c-28-15-36-58-18-87c21-31,61-37,219-32c117,3,137,6,170,27c60,37,87,85,87,154
		c0,109-69,172-200,184c-77,7-106,20-140,63c-25,32-30,47-30,94c0,53,3,59,43,100c49,48,74,56,188,56c68,0,81,3,99,22
		c11,12,20,31,20,43s-9,31-20,43c-19,20-30,22-123,21C23619,2609,23555,2602,23529,2594z"/>
	<path class="st0" d="M24215,2586l-25-25v-353c0-328,2-355,19-377c13-16,29-24,49-24c54,0,62,15,62,114c0,67,4,91,16,104
		c31,31,56,13,141-100c83-109,83-110,125-110c35,0,45,4,57,27c18,32,14,42-61,142c-48,64-49,68-32,81c11,8,24,15,29,15
		c6,0,30,19,52,43c138,140,102,367-72,460c-35,19-60,22-187,25C24242,2612,24241,2612,24215,2586z M24504,2466c53-22,96-82,96-134
		c0-59-25-109-70-138c-33-22-46-25-121-22l-84,3l-3,130c-4,181-7,175,79,175C24439,2480,24485,2474,24504,2466z"/>
	<path class="st0" d="M25100,2590c-19-19-20-33-20-383c0-357,0-364,21-383c18-16,40-19,162-22c77-2,155-1,174,3c45,8,67,42,52,83
		c-14,40-27,44-136,43c-50-1-103,1-117,5l-26,6v314c0,301-1,315-20,334c-11,11-31,20-45,20S25111,2601,25100,2590z"/>
	<path class="st0" d="M23954,1976c-56-25-69-102-23-145c31-28,65-34,103-16c57,27,72,90,33,137C24040,1984,23995,1994,23954,1976z"
		/>
	<path class="st0" d="M24853,1983c-58-12-82-100-40-149c32-37,98-38,134-2C25013,1899,24948,2002,24853,1983z"/>
	<path class="st0" d="M25584,1980c-55-22-71-99-31-146c31-36,96-38,132-4c34,32,35,97,2,128C25660,1983,25614,1993,25584,1980z"/>
</g>
</svg>
